# xmcd
#
# Track frame offsets:
#	150
#	22492
#	38925
#	61491
#	77311
#	93011
#	114640
#	133990
#	157833
#	175111
#	189955
#	205573
#	219691
#	239222
#
# Disc length: 3366 seconds
#
# Revision: 1
# Processed by: cddbd v1.4PL0 Copyright (c) Steve Scherf et al.
# Submitted via: EasyCDDAExtractor 5.1.0
#
DISCID=bf0d240e
DTITLE=Mario Maglione - Ricordi Di Napoli
DYEAR=1900
DGENRE=Country
TTITLE0=Caruso
TTITLE1=Scalinatella
TTITLE2=Lusingame
TTITLE3=Indifferentemente
TTITLE4=Tammurriata Nera
TTITLE5=Maria Mari
TTITLE6=Canzone Bella
TTITLE7=Era De Maggio
TTITLE8=O Sarracino
TTITLE9=O Bar E Luniversita
TTITLE10=A Canzuncella
TTITLE11=Maruzzella
TTITLE12=Passione
TTITLE13=Io Te Voglio Bene Assaje
EXTD=
EXTT0=
EXTT1=
EXTT2=
EXTT3=
EXTT4=
EXTT5=
EXTT6=
EXTT7=
EXTT8=
EXTT9=
EXTT10=
EXTT11=
EXTT12=
EXTT13=
PLAYORDER=
